<?xml version="1.0" encoding="UTF-8" standalone="no"?>
<!DOCTYPE svg PUBLIC "-//W3C//DTD SVG 1.1//EN" "http://www.w3.org/Graphics/SVG/1.1/DTD/svg11.dtd">
<svg width="100%" height="100%" viewBox="0 0 31 43" version="1.1" xmlns="http://www.w3.org/2000/svg" xmlns:xlink="http://www.w3.org/1999/xlink" xml:space="preserve" xmlns:serif="http://www.serif.com/" style="fill-rule:evenodd;clip-rule:evenodd;stroke-linejoin:round;stroke-miterlimit:2;">
    <g transform="matrix(1,0,0,1,-1056.72,-3104.2)">
        <g transform="matrix(1,0,0,1,858.348,2785.64)">
            <path d="M203.33,325.28L208.991,321.506C209.266,321.322 209.863,321.258 210.167,321.375L225.471,327.261C225.637,327.325 225.875,327.671 225.875,327.865L225.875,355.347C225.875,356.106 226.491,356.722 227.25,356.722C228.009,356.722 228.625,356.106 228.625,355.347L228.625,327.865C228.625,326.534 227.687,325.167 226.458,324.694L211.154,318.808C210.02,318.372 208.486,318.537 207.465,319.218L200.362,323.953L199.444,324.565L199.451,324.583C198.799,324.877 198.375,325.555 198.375,326.472L198.375,351.356C198.375,352.875 199.525,354.531 200.937,355.053L217.776,361.275C219.191,361.798 220.339,360.983 220.339,359.473L220.339,333.375C220.339,331.857 219.158,330.255 217.733,329.808L203.33,325.28Z" style="fill:rgb(239,243,254);"/>
        </g>
    </g>
</svg>
