<?xml version="1.0" encoding="UTF-8" standalone="no"?>
<!DOCTYPE svg PUBLIC "-//W3C//DTD SVG 1.1//EN" "http://www.w3.org/Graphics/SVG/1.1/DTD/svg11.dtd">
<svg width="100%" height="100%" viewBox="0 0 39 36" version="1.1" xmlns="http://www.w3.org/2000/svg" xmlns:xlink="http://www.w3.org/1999/xlink" xml:space="preserve" xmlns:serif="http://www.serif.com/" style="fill-rule:evenodd;clip-rule:evenodd;stroke-linejoin:round;stroke-miterlimit:2;">
    <g transform="matrix(1,0,0,1,-1052.49,-2815.73)">
        <g transform="matrix(1,0,0,1,858.348,2785.64)">
            <path d="M221.864,59.823C220.984,58.59 221.49,57.59 223.019,57.59L231.27,57.59C232.789,57.59 233.31,58.584 232.425,59.823L228.739,64.983C227.859,66.216 226.435,66.222 225.55,64.983L221.864,59.823ZM221.864,32.323C220.984,31.09 221.49,30.09 223.019,30.09L231.27,30.09C232.789,30.09 233.31,31.084 232.425,32.323L228.739,37.483C227.859,38.716 226.435,38.722 225.55,37.483L221.864,32.323ZM221.864,46.073C220.984,44.84 221.49,43.84 223.019,43.84L231.27,43.84C232.789,43.84 233.31,44.834 232.425,46.073L228.739,51.233C227.858,52.466 226.435,52.472 225.55,51.233L221.864,46.073ZM194.145,34.215C194.145,32.697 195.392,31.465 196.905,31.465L215.864,31.465C217.389,31.465 218.625,32.686 218.625,34.215C218.625,35.734 217.377,36.965 215.864,36.965L196.905,36.965C195.381,36.965 194.145,35.745 194.145,34.215ZM194.145,47.965C194.145,46.447 195.392,45.215 196.905,45.215L215.864,45.215C217.389,45.215 218.625,46.436 218.625,47.965C218.625,49.484 217.377,50.715 215.864,50.715L196.905,50.715C195.381,50.715 194.145,49.495 194.145,47.965ZM194.145,61.715C194.145,60.197 195.392,58.965 196.905,58.965L215.864,58.965C217.389,58.965 218.625,60.186 218.625,61.715C218.625,63.234 217.377,64.465 215.864,64.465L196.905,64.465C195.381,64.465 194.145,63.245 194.145,61.715Z" style="fill:rgb(239,243,254);"/>
        </g>
    </g>
</svg>
