<?xml version="1.0" encoding="UTF-8" standalone="no"?>
<!DOCTYPE svg PUBLIC "-//W3C//DTD SVG 1.1//EN" "http://www.w3.org/Graphics/SVG/1.1/DTD/svg11.dtd">
<svg width="100%" height="100%" viewBox="0 0 12 14" version="1.1" xmlns="http://www.w3.org/2000/svg" xmlns:xlink="http://www.w3.org/1999/xlink" xml:space="preserve" xmlns:serif="http://www.serif.com/" style="fill-rule:evenodd;clip-rule:evenodd;stroke-linejoin:round;stroke-miterlimit:2;">
    <g transform="matrix(1,0,0,1,-1181.72,-1694.71)">
        <g transform="matrix(1,0,0,1,1179.72,1693.5)">
            <path d="M7.312,1.506C7.692,1.111 8.306,1.109 8.688,1.506L13.312,6.312C13.692,6.708 14,7.468 14,8.027L14,14.281C14,14.563 13.785,14.791 13.509,14.791L10.491,14.791C10.22,14.791 10,14.576 10,14.3L10,10.791C10,10.791 10,8.791 8,8.791C6,8.791 6.066,10.307 6.066,10.307C6.029,10.574 6,11.006 6,11.281L6,14.3C6,14.571 5.785,14.791 5.51,14.791L2.49,14.791C2.22,14.791 2,14.567 2,14.281L2,8.027C2,7.475 2.306,6.71 2.688,6.312L7.312,1.506Z" style="fill:white;"/>
        </g>
    </g>
</svg>
