<?xml version="1.0" encoding="UTF-8" standalone="no"?>
<!DOCTYPE svg PUBLIC "-//W3C//DTD SVG 1.1//EN" "http://www.w3.org/Graphics/SVG/1.1/DTD/svg11.dtd">
<svg width="100%" height="100%" viewBox="0 0 39 39" version="1.1" xmlns="http://www.w3.org/2000/svg" xmlns:xlink="http://www.w3.org/1999/xlink" xml:space="preserve" xmlns:serif="http://www.serif.com/" style="fill-rule:evenodd;clip-rule:evenodd;stroke-linejoin:round;stroke-miterlimit:2;">
    <g transform="matrix(1,0,0,1,-1459.6,-3106.39)">
        <g transform="matrix(1,0,0,1,858.348,2785.64)">
            <path d="M616.783,346.316C611.241,346.316 606.751,341.826 606.751,336.284C606.751,330.743 611.241,326.25 616.783,326.25C622.324,326.25 626.815,330.743 626.815,336.284C626.815,341.826 622.324,346.316 616.783,346.316ZM638.945,352.768L630.398,344.694C630.277,344.573 630.123,344.515 629.988,344.422C631.454,342.051 632.315,339.268 632.315,336.284C632.315,327.718 625.349,320.75 616.783,320.75C608.216,320.75 601.251,327.718 601.251,336.284C601.251,344.848 608.216,351.816 616.783,351.816C619.535,351.816 622.118,351.09 624.362,349.828C624.474,350.012 624.56,350.21 624.722,350.37L633.269,358.444C634.341,359.519 636.082,359.519 637.157,358.444L638.945,356.656C640.017,355.584 640.017,353.843 638.945,352.768Z" style="fill:rgb(239,243,254);"/>
        </g>
    </g>
</svg>
