<?xml version="1.0" encoding="UTF-8" standalone="no"?>
<!DOCTYPE svg PUBLIC "-//W3C//DTD SVG 1.1//EN" "http://www.w3.org/Graphics/SVG/1.1/DTD/svg11.dtd">
<svg width="100%" height="100%" viewBox="0 0 31 40" version="1.1" xmlns="http://www.w3.org/2000/svg" xmlns:xlink="http://www.w3.org/1999/xlink" xml:space="preserve" xmlns:serif="http://www.serif.com/" style="fill-rule:evenodd;clip-rule:evenodd;stroke-linejoin:round;stroke-miterlimit:2;">
    <g transform="matrix(1,0,0,1,-1056.72,-3398.12)">
        <g transform="matrix(1,0,0,1,858.348,2785.64)">
            <path d="M213.692,627.547C209.533,627.547 206.161,624.174 206.161,620.015C206.161,615.855 209.533,612.483 213.692,612.483C217.852,612.483 221.224,615.855 221.224,620.015C221.224,624.174 217.852,627.547 213.692,627.547ZM213.692,630.559C221.727,630.559 228.625,635.017 228.625,644.117C228.625,646.965 224.237,651.517 213.692,651.517C203.148,651.517 198.375,647.294 198.375,644.117C198.375,635.017 205.658,630.559 213.692,630.559Z" style="fill:rgb(239,243,254);"/>
        </g>
    </g>
</svg>
