<?xml version="1.0" encoding="UTF-8" standalone="no"?>
<!DOCTYPE svg PUBLIC "-//W3C//DTD SVG 1.1//EN" "http://www.w3.org/Graphics/SVG/1.1/DTD/svg11.dtd">
<svg width="100%" height="100%" viewBox="0 0 44 35" version="1.1" xmlns="http://www.w3.org/2000/svg" xmlns:xlink="http://www.w3.org/1999/xlink" xml:space="preserve" xmlns:serif="http://www.serif.com/" style="fill-rule:evenodd;clip-rule:evenodd;stroke-linejoin:round;stroke-miterlimit:2;">
    <g transform="matrix(1,0,0,1,-1456.85,-2816.45)">
        <g transform="matrix(1,0,0,1,858.348,2785.64)">
            <path d="M635.138,60.202C635.157,60.034 635.166,59.864 635.166,59.688C635.166,55.337 634.005,52.111 631.901,49.881C632.809,49.419 633.887,49.147 635.166,49.147C640.666,49.147 642.5,54.188 642.5,57.625C642.5,59.349 638.815,60.21 635.138,60.202ZM609.096,49.881C606.995,52.109 605.834,55.337 605.834,59.688C605.834,59.864 605.843,60.034 605.859,60.202C602.182,60.21 598.5,59.349 598.5,57.625C598.5,54.188 600.334,49.147 605.834,49.147C607.113,49.147 608.191,49.419 609.099,49.881L609.096,49.881ZM620.5,44.563C618.677,44.563 616.928,43.838 615.639,42.549C614.349,41.26 613.625,39.511 613.625,37.688C613.625,35.864 614.349,34.116 615.639,32.826C616.928,31.537 618.677,30.813 620.5,30.813C622.323,30.813 624.072,31.537 625.361,32.826C626.651,34.116 627.375,35.864 627.375,37.688C627.375,39.511 626.651,41.26 625.361,42.549C624.072,43.838 622.323,44.563 620.5,44.563ZM635.166,47.313C633.707,47.313 632.308,46.733 631.277,45.702C630.245,44.67 629.666,43.271 629.666,41.813C629.666,40.354 630.245,38.955 631.277,37.923C632.308,36.892 633.707,36.313 635.166,36.313C636.624,36.313 638.023,36.892 639.055,37.923C640.086,38.955 640.666,40.354 640.666,41.813C640.666,43.271 640.086,44.67 639.055,45.702C638.023,46.733 636.624,47.313 635.166,47.313ZM605.834,47.313C604.376,47.313 602.977,46.733 601.945,45.702C600.914,44.67 600.334,43.271 600.334,41.813C600.334,40.354 600.914,38.955 601.945,37.923C602.977,36.892 604.376,36.313 605.834,36.313C607.293,36.313 608.692,36.892 609.723,37.923C610.755,38.955 611.334,40.354 611.334,41.813C611.334,43.271 610.755,44.67 609.723,45.702C608.692,46.733 607.293,47.313 605.834,47.313ZM620.5,47.313C627.834,47.313 632.875,50.063 632.875,59.688C632.875,62.286 630.125,65.188 620.5,65.188C610.875,65.188 608.125,62.589 608.125,59.688C608.125,50.063 613.166,47.313 620.5,47.313Z" style="fill:rgb(239,243,254);"/>
        </g>
    </g>
</svg>
